<?xml version="1.0" encoding="utf-8"?>
<!-- Generator: Adobe Illustrator 16.0.4, SVG Export Plug-In . SVG Version: 6.00 Build 0)  -->
<!DOCTYPE svg PUBLIC "-//W3C//DTD SVG 1.1//EN" "http://www.w3.org/Graphics/SVG/1.1/DTD/svg11.dtd">
<svg version="1.1" id="Layer_1" xmlns="http://www.w3.org/2000/svg" xmlns:xlink="http://www.w3.org/1999/xlink" x="0px" y="0px"
	 width="800px" height="867px" viewBox="0 0 800 867" enable-background="new 0 0 800 867" xml:space="preserve">
<g>
	<path fill="#EA4C88" d="M401,162c1.416,0,3,2.138,3,5s-1.584,5-3,5s-3-2.138-3-5S399.584,162,401,162 M401,157
		c-4.418,0-8,4.477-8,10s3.582,10,8,10c4.418,0,8-4.477,8-10S405.418,157,401,157L401,157z"/>
</g>
<g>
	<path fill="#EA4C88" d="M401,150c1.416,0,3,2.138,3,5s-1.584,5-3,5s-3-2.138-3-5S399.584,150,401,150 M401,145
		c-4.418,0-8,4.477-8,10s3.582,10,8,10c4.418,0,8-4.477,8-10S405.418,145,401,145L401,145z"/>
</g>
<g>
	<path fill="#EA4C88" d="M401,138c1.416,0,3,2.138,3,5s-1.584,5-3,5s-3-2.138-3-5S399.584,138,401,138 M401,133
		c-4.418,0-8,4.477-8,10s3.582,10,8,10c4.418,0,8-4.477,8-10S405.418,133,401,133L401,133z"/>
</g>
<g>
	<path fill="#EA4C88" d="M401,126c1.416,0,3,2.138,3,5s-1.584,5-3,5s-3-2.138-3-5S399.584,126,401,126 M401,121
		c-4.418,0-8,4.477-8,10s3.582,10,8,10c4.418,0,8-4.477,8-10S405.418,121,401,121L401,121z"/>
</g>
<g>
	<path fill="#EA4C88" d="M401,114c1.416,0,3,2.138,3,5s-1.584,5-3,5s-3-2.138-3-5S399.584,114,401,114 M401,109
		c-4.418,0-8,4.477-8,10s3.582,10,8,10c4.418,0,8-4.477,8-10S405.418,109,401,109L401,109z"/>
</g>
<g>
	<path fill="#EA4C88" d="M401,102c1.416,0,3,2.138,3,5s-1.584,5-3,5s-3-2.138-3-5S399.584,102,401,102 M401,97
		c-4.418,0-8,4.477-8,10s3.582,10,8,10c4.418,0,8-4.477,8-10S405.418,97,401,97L401,97z"/>
</g>
<g>
	<path fill="#EA4C88" d="M401,90c1.416,0,3,2.138,3,5s-1.584,5-3,5s-3-2.138-3-5S399.584,90,401,90 M401,85c-4.418,0-8,4.477-8,10
		s3.582,10,8,10c4.418,0,8-4.477,8-10S405.418,85,401,85L401,85z"/>
</g>
<g>
	<path fill="#EA4C88" d="M401,78c1.416,0,3,2.138,3,5s-1.584,5-3,5s-3-2.138-3-5S399.584,78,401,78 M401,73c-4.418,0-8,4.477-8,10
		s3.582,10,8,10c4.418,0,8-4.477,8-10S405.418,73,401,73L401,73z"/>
</g>
<g>
	<path fill="#EA4C88" d="M401,66c1.416,0,3,2.138,3,5s-1.584,5-3,5s-3-2.138-3-5S399.584,66,401,66 M401,61c-4.418,0-8,4.477-8,10
		s3.582,10,8,10c4.418,0,8-4.477,8-10S405.418,61,401,61L401,61z"/>
</g>
<g>
	<path fill="#EA4C88" d="M401,54c1.416,0,3,2.138,3,5s-1.584,5-3,5s-3-2.138-3-5S399.584,54,401,54 M401,49c-4.418,0-8,4.477-8,10
		s3.582,10,8,10c4.418,0,8-4.477,8-10S405.418,49,401,49L401,49z"/>
</g>
<g>
	<path fill="#EA4C88" d="M401,42c1.416,0,3,2.138,3,5s-1.584,5-3,5s-3-2.138-3-5S399.584,42,401,42 M401,37c-4.418,0-8,4.477-8,10
		s3.582,10,8,10c4.418,0,8-4.477,8-10S405.418,37,401,37L401,37z"/>
</g>
<g>
	<path fill="#EA4C88" d="M401,30c1.416,0,3,2.138,3,5s-1.584,5-3,5s-3-2.138-3-5S399.584,30,401,30 M401,25c-4.418,0-8,4.477-8,10
		s3.582,10,8,10c4.418,0,8-4.477,8-10S405.418,25,401,25L401,25z"/>
</g>
<g>
	<path fill="#EA4C88" d="M401,18c1.416,0,3,2.138,3,5s-1.584,5-3,5s-3-2.138-3-5S399.584,18,401,18 M401,13c-4.418,0-8,4.477-8,10
		s3.582,10,8,10c4.418,0,8-4.477,8-10S405.418,13,401,13L401,13z"/>
</g>
<g>
	<path fill="#EA4C88" d="M400,615.537c-50.998,0-92.897-10.634-95.388-24.208l-0.075-0.41H304.5v-346.64l0.097-0.364
		c2.22-37.782,44.126-67.378,95.403-67.378c51.277,0,93.184,29.596,95.402,67.378l0.027,0.471h0.07v346.533h-0.037l-0.075,0.41
		C492.898,604.903,450.999,615.537,400,615.537z M402.7,520.046l0.504-0.004c14.073-0.113,27.55-0.951,40.058-2.492l0.438-0.054
		V269.983l-0.441-0.052c-12.508-1.479-25.984-2.283-40.055-2.391l-0.504-0.004V520.046z M396.796,267.54
		c-14.071,0.108-27.547,0.913-40.055,2.391l-0.441,0.052v247.513l0.439,0.054c12.507,1.541,25.985,2.379,40.057,2.492l0.504,0.004
		v-252.51L396.796,267.54z M449.1,516.77l0.573-0.084c18.241-2.691,32.517-6.85,40.195-11.709l0.232-0.147V282.135l-0.24-0.146
		c-7.678-4.659-21.951-8.646-40.19-11.228l-0.57-0.081V516.77z M350.33,270.761c-18.241,2.582-32.514,6.57-40.189,11.228
		l-0.241,0.146v222.694l0.232,0.147c7.678,4.859,21.953,9.018,40.194,11.709l0.573,0.084V270.68L350.33,270.761z M423.503,185.133
		c11.119,8.725,19.374,23.03,23.244,40.28l0.073,0.326l0.33,0.057c18.792,3.256,33.565,8.404,41.598,14.495l0.983,0.746l-0.188-1.22
		c-2.222-14.491-10.925-27.718-25.171-38.251c-11.234-8.306-25.227-14.293-40.464-17.316l-2.051-0.407L423.503,185.133z
		 M376.093,184.249c-15.24,3.023-29.232,9.011-40.465,17.316c-14.247,10.533-22.951,23.76-25.172,38.251l-0.187,1.22l0.983-0.746
		c8.033-6.091,22.807-11.238,41.599-14.495l0.329-0.057l0.073-0.326c3.87-17.249,12.125-31.554,23.246-40.279l1.645-1.291
		L376.093,184.249z M402.7,222.018l0.495,0.005c12.969,0.131,25.465,1.04,37.142,2.701l0.739,0.105l-0.185-0.724
		c-2.302-9.036-5.887-17.079-10.656-23.904c-7.367-10.541-16.948-16.964-26.979-18.086l-0.556-0.062V222.018z M396.745,182.115
		c-10.031,1.122-19.613,7.545-26.979,18.086c-4.771,6.828-8.357,14.871-10.658,23.904l-0.185,0.724l0.739-0.105
		c11.679-1.662,24.176-2.57,37.143-2.701l0.495-0.005v-39.965L396.745,182.115z"/>
	<path fill="#3B3B3B" d="M400,177.037c24.698,0,48.099,6.955,65.891,19.584c17.652,12.531,27.956,29.337,29.013,47.323l0.055,0.941
		H495v345.787l-0.104,0.565c-2.407,13.123-44.978,23.799-94.896,23.799c-49.918,0-92.489-10.676-94.896-23.799L305,590.671V244.886
		h0.041l0.056-0.941c1.057-17.985,11.36-34.792,29.013-47.323C351.901,183.992,375.302,177.037,400,177.037 M441.745,225.429
		l-0.369-1.447c-2.316-9.095-5.927-17.192-10.731-24.067c-7.45-10.661-17.157-17.159-27.333-18.297l-1.111-0.125v1.118v38.911v0.99
		l0.99,0.01c12.946,0.13,25.421,1.038,37.076,2.696L441.745,225.429 M358.255,225.429l1.478-0.21
		c11.658-1.659,24.132-2.566,37.078-2.696l0.99-0.01v-0.99v-38.911v-1.118l-1.111,0.125c-10.176,1.138-19.883,7.636-27.333,18.297
		c-4.806,6.877-8.417,14.975-10.732,24.067L358.255,225.429 M309.587,242.18l1.966-1.491c7.971-6.043,22.667-11.158,41.383-14.401
		l0.659-0.114l0.146-0.652c3.845-17.137,12.037-31.341,23.066-39.996l3.29-2.582l-4.102,0.814
		c-15.311,3.038-29.373,9.056-40.665,17.405c-14.355,10.613-23.127,23.953-25.369,38.578L309.587,242.18 M490.412,242.18
		l-0.374-2.439c-2.241-14.624-11.014-27.964-25.367-38.578c-11.294-8.349-25.355-14.367-40.665-17.405l-4.102-0.813l3.29,2.581
		c11.029,8.655,19.221,22.859,23.065,39.996l0.146,0.652l0.658,0.114c18.716,3.243,33.411,8.357,41.381,14.4L490.412,242.18
		 M402.2,520.55l1.008-0.008c14.092-0.113,27.589-0.953,40.114-2.496l0.878-0.107v-0.885V270.428v-0.889l-0.883-0.104
		c-12.526-1.48-26.021-2.286-40.109-2.395l-1.008-0.008v1.008v251.502V520.55 M397.8,520.55v-1.008V268.04v-1.008l-1.008,0.008
		c-14.089,0.108-27.584,0.914-40.109,2.395l-0.883,0.104v0.889v246.626v0.885l0.878,0.107c12.526,1.543,26.022,2.383,40.114,2.496
		L397.8,520.55 M448.6,517.349l1.146-0.169c18.31-2.701,32.653-6.885,40.391-11.781l0.465-0.294v-0.551V282.416v-0.563l-0.481-0.292
		c-7.734-4.693-22.074-8.705-40.38-11.295l-1.14-0.161v1.151V516.19V517.349 M351.4,517.349v-1.158V271.256v-1.151l-1.14,0.161
		c-18.307,2.592-32.647,6.603-40.379,11.295l-0.481,0.292v0.563v222.138v0.551l0.465,0.294c7.735,4.896,22.079,9.08,40.389,11.781
		L351.4,517.349 M400,176.037c-51.599,0-93.684,30.102-95.902,67.849H304v347.533h0.121c2.515,13.711,44.479,24.618,95.879,24.618
		c51.4,0,93.365-10.907,95.88-24.618H496V243.886h-0.099C493.685,206.139,451.6,176.037,400,176.037L400,176.037z M440.407,224.229
		c-11.369-1.618-23.948-2.572-37.207-2.706v-38.911c9.92,1.109,19.274,7.357,26.625,17.876
		C434.584,207.298,438.154,215.384,440.407,224.229L440.407,224.229z M359.592,224.229c2.252-8.845,5.824-16.931,10.583-23.741
		c7.351-10.519,16.705-16.767,26.625-17.876v38.911C383.54,221.657,370.963,222.611,359.592,224.229L359.592,224.229z
		 M489.05,239.892c-8.161-6.188-23.014-11.331-41.814-14.589c-3.908-17.419-12.391-31.906-23.424-40.564
		c15.123,3,28.953,8.866,40.265,17.228C478.198,212.41,486.87,225.673,489.05,239.892L489.05,239.892z M310.949,239.892
		c2.18-14.219,10.852-27.483,24.976-37.925c11.311-8.362,25.142-14.228,40.265-17.228c-11.034,8.658-19.517,23.145-23.425,40.563
		C333.964,228.561,319.112,233.704,310.949,239.892L310.949,239.892z M403.2,519.542V268.04c14.354,0.11,27.909,0.958,40,2.388
		v246.626C431.11,518.543,417.554,519.427,403.2,519.542L403.2,519.542z M396.8,519.542c-14.354-0.115-27.91-0.999-40-2.488V270.428
		c12.09-1.429,25.646-2.277,40-2.388V519.542L396.8,519.542z M449.6,516.19V271.256c18.099,2.562,32.294,6.483,40.001,11.16v222.138
		C481.896,509.43,467.703,513.52,449.6,516.19L449.6,516.19z M350.4,516.19c-18.104-2.671-32.296-6.761-40-11.637V282.416
		c7.706-4.677,21.901-8.598,40-11.16V516.19L350.4,516.19z"/>
</g>
</svg>
