<?xml version="1.0" encoding="utf-8"?>
<!-- Generator: Adobe Illustrator 16.0.4, SVG Export Plug-In . SVG Version: 6.00 Build 0)  -->
<!DOCTYPE svg PUBLIC "-//W3C//DTD SVG 1.1//EN" "http://www.w3.org/Graphics/SVG/1.1/DTD/svg11.dtd">
<svg version="1.1" id="Layer_1" xmlns="http://www.w3.org/2000/svg" xmlns:xlink="http://www.w3.org/1999/xlink" x="0px" y="0px"
	 width="800px" height="867px" viewBox="0 0 800 867" enable-background="new 0 0 800 867" xml:space="preserve">
<path fill="#3B3B3B" d="M495.901,243.886c-2.217-37.747-44.302-67.849-95.901-67.849c-51.599,0-93.684,30.102-95.902,67.849H304
	v347.533h0.121c2.515,13.711,44.479,24.618,95.879,24.618c51.4,0,93.365-10.907,95.88-24.618H496V243.886H495.901z M489.601,504.554
	c-7.705,4.876-21.897,8.966-40.001,11.637V271.256c18.099,2.562,32.294,6.483,40.001,11.16V504.554z M464.076,201.967
	c14.122,10.442,22.794,23.706,24.974,37.925c-8.161-6.188-23.014-11.331-41.814-14.589c-3.908-17.419-12.391-31.906-23.424-40.564
	C438.935,187.74,452.765,193.605,464.076,201.967z M403.2,182.612c9.92,1.109,19.274,7.357,26.625,17.876
	c4.759,6.81,8.329,14.896,10.582,23.741c-11.369-1.618-23.948-2.572-37.207-2.706V182.612z M443.2,270.428v246.626
	c-12.09,1.489-25.646,2.373-40,2.488V268.04C417.555,268.15,431.109,268.999,443.2,270.428z M396.8,519.542
	c-14.354-0.115-27.91-0.999-40-2.488V270.428c12.09-1.429,25.646-2.277,40-2.388V519.542z M396.8,221.523
	c-13.26,0.134-25.837,1.088-37.208,2.706c2.252-8.845,5.824-16.931,10.583-23.741c7.351-10.519,16.705-16.767,26.625-17.876V221.523
	z M335.925,201.967c11.311-8.362,25.142-14.228,40.265-17.228c-11.034,8.658-19.517,23.145-23.425,40.563
	c-18.801,3.258-33.653,8.401-41.816,14.589C313.129,225.673,321.801,212.409,335.925,201.967z M350.4,271.256V516.19
	c-18.104-2.671-32.296-6.761-40-11.637V282.416C318.105,277.739,332.301,273.818,350.4,271.256z"/>
</svg>
